<?xml version="1.0" encoding="iso-8859-1"?>
<!-- Generator: Adobe Illustrator 19.0.0, SVG Export Plug-In . SVG Version: 6.00 Build 0)  -->
<svg version="1.1" id="Layer_1" xmlns="http://www.w3.org/2000/svg" xmlns:xlink="http://www.w3.org/1999/xlink" x="0px" y="0px"
	 viewBox="0 0 512 512" style="enable-background:new 0 0 512 512;" xml:space="preserve">
<path style="fill:#F8F8F9;" d="M138.299,462.21L138.299,462.21l0.001-94.161h-35.31v94.161h-0.001
	c0,17.765-13.084,32.444-30.152,34.937c-2.975,0.434-5.159,3.024-5.159,6.031l0,0c0,3.376,2.737,6.112,6.112,6.112h93.707
	c3.376,0,6.112-2.737,6.112-6.112l0,0c0-3.007-2.183-5.597-5.159-6.031C151.383,494.654,138.299,479.975,138.299,462.21z"/>
<path style="fill:#EDEDED;" d="M168.45,497.147c-17.067-2.493-30.152-17.173-30.152-34.937h0.001v-94.161h-23.54v94.161h-0.001
	c0,17.765,13.085,32.444,30.152,34.937c2.975,0.434,5.159,3.024,5.159,6.031l0,0c0,3.376-2.737,6.112-6.112,6.112h23.54
	c3.376,0,6.112-2.737,6.112-6.112l0,0C173.609,500.172,171.426,497.582,168.45,497.147z"/>
<path style="fill:#F8F8F9;" d="M38.253,220.69v82.391c0,45.503,36.888,82.391,82.391,82.391s82.391-36.888,82.391-82.391V220.69
	H38.253z"/>
<path style="fill:#EDEDED;" d="M167.724,220.69v82.391c0,39.44-27.72,72.39-64.736,80.475c5.69,1.243,11.592,1.916,17.655,1.916
	c45.503,0,82.391-36.888,82.391-82.391V220.69H167.724z"/>
<path style="fill:#C5142C;" d="M38.253,267.77v35.31c0,45.503,36.888,82.391,82.391,82.391s82.391-36.888,82.391-82.391v-35.31
	H38.253z"/>
<path style="fill:#A31126;" d="M167.724,267.77v35.31c0,39.44-27.72,72.39-64.736,80.475c5.69,1.243,11.592,1.916,17.655,1.916
	c45.503,0,82.391-36.888,82.391-82.391v-35.31H167.724z"/>
<rect x="332.506" y="8.828" style="fill:#BFA993;" width="70.621" height="70.621"/>
<rect x="356.046" y="8.828" style="fill:#B29A7E;" width="47.08" height="70.621"/>
<path style="fill:#80CB93;" d="M332.498,67.678v41.323c0,14.836-9.182,28.324-23.197,33.195
	c-27.608,9.597-47.424,35.846-47.424,66.722c0,0,0.008,213.221,0.008,276.602c0,9.75,7.905,17.653,17.655,17.653h176.552
	c9.75,0,17.655-7.905,17.655-17.655l-0.012-276.601c0-30.878-19.816-57.126-47.424-66.722
	c-14.014-4.872-23.197-18.359-23.197-33.195V67.677"/>
<path style="fill:#6DC180;" d="M473.744,208.916c0-30.878-19.816-57.126-47.424-66.722c-14.013-4.872-23.197-18.358-23.197-33.194
	V67.677l-47.08,0.001v41.321c0,14.836,9.182,28.324,23.197,33.194c27.608,9.597,47.424,35.846,47.424,66.722l0.012,276.601
	c0,9.75-7.905,17.655-17.655,17.655h47.08c9.75,0,17.655-7.905,17.655-17.655L473.744,208.916z"/>
<rect x="308.966" y="220.69" style="fill:#F8F8F9;" width="117.701" height="117.701"/>
<g>
	<path style="fill:#2E2D31;" d="M482.563,208.916c0-33.803-21.442-63.968-53.354-75.06c-10.327-3.59-17.267-13.579-17.267-24.856
		v-1.891c0-4.876-3.951-8.828-8.828-8.828s-8.828,3.951-8.828,8.828v1.89c0,18.786,11.704,35.477,29.124,41.532
		c24.821,8.629,41.497,32.092,41.497,58.384l0.012,276.602c0,4.868-3.959,8.828-8.828,8.828H279.54
		c-4.868,0-8.828-3.958-8.828-8.825l-0.008-276.601c0-26.294,16.676-49.757,41.497-58.384c17.42-6.056,29.124-22.746,29.124-41.533
		V76.509h61.801c4.876,0,8.828-3.951,8.828-8.828V8.828c0-4.876-3.951-8.828-8.828-8.828h-70.621c-4.876,0-8.828,3.951-8.828,8.828
		V67.52c-0.001,0.054-0.008,41.48-0.008,41.48c0,11.278-6.94,21.267-17.266,24.857c-31.914,11.092-53.355,41.258-53.355,75.06
		l0.008,276.601c0,14.601,11.881,26.48,26.483,26.48h176.552c14.602,0,26.483-11.881,26.483-26.483L482.563,208.916z
		 M341.333,17.655h52.966v41.199h-52.966V17.655z"/>
	<path style="fill:#2E2D31;" d="M300.138,220.69v117.701c0,4.876,3.951,8.828,8.828,8.828h117.701c4.876,0,8.828-3.951,8.828-8.828
		V220.69c0-4.876-3.951-8.828-8.828-8.828H308.966C304.089,211.862,300.138,215.813,300.138,220.69z M317.793,229.517h100.046
		v100.046H317.793V229.517z"/>
	<path style="fill:#2E2D31;" d="M203.034,211.862H38.253c-4.876,0-8.828,3.951-8.828,8.828v82.391
		c0,41.089,27.315,75.909,64.737,87.285l-0.001,77.497c0,14.602-11.881,26.483-26.483,26.483c-4.876,0-8.828,3.951-8.828,8.828
		c0,4.876,3.951,8.828,8.828,8.828h105.931c4.876,0,8.828-3.951,8.828-8.828c0-4.876-3.951-8.828-8.828-8.828
		c-7.082,0-13.735-2.753-18.732-7.751c-4.998-4.998-7.749-11.65-7.749-18.732v-77.497c37.421-11.377,64.734-46.195,64.734-87.285
		V220.69C211.862,215.813,207.911,211.862,203.034,211.862z M138.32,494.345h-35.353c5.553-7.382,8.849-16.555,8.85-26.483v-73.998
		c2.906,0.28,14.748,0.28,17.655,0l-0.001,73.998C129.471,477.79,132.767,486.963,138.32,494.345z M194.207,303.08
		c0,40.563-33,73.563-73.563,73.563s-73.563-33-73.563-73.563v-26.483h120.644c4.876,0,8.828-3.951,8.828-8.828
		s-3.951-8.828-8.828-8.828H47.08v-29.425h147.126V303.08z"/>
</g>
<g>
</g>
<g>
</g>
<g>
</g>
<g>
</g>
<g>
</g>
<g>
</g>
<g>
</g>
<g>
</g>
<g>
</g>
<g>
</g>
<g>
</g>
<g>
</g>
<g>
</g>
<g>
</g>
<g>
</g>
</svg>
